<?xml version="1.0" encoding="utf-8" ?>
<svg baseProfile="tiny" height="100%" version="1.2" width="100%" xmlns="http://www.w3.org/2000/svg" xmlns:ev="http://www.w3.org/2001/xml-events" xmlns:xlink="http://www.w3.org/1999/xlink"><defs /><circle cx="0" cy="0" fill="white" r="250" stroke="blue" /><text fill="red" font-size="10" text-anchor="middle" x="0" y="0">http://eagleepicsocks.com/2d/</text><line stroke="rgb(10%,10%,16%)" x1="0" x2="0" y1="250" y2="650" /><rect fill="white" height="30" stroke="grey" width="400" x="-200.0" y="650" /><text fill="red" text-anchor="middle" x="0.0" y="670">CLEAN MX - True - phishing site</text><line stroke="rgb(10%,10%,16%)" x1="0" x2="0" y1="680" y2="760" /><rect fill="white" height="30" stroke="grey" width="400" x="-200.0" y="760" /><text fill="red" text-anchor="middle" x="0.0" y="780">BitDefender - True - malware site</text><line stroke="rgb(10%,10%,16%)" x1="0" x2="0" y1="790" y2="870" /><rect fill="white" height="30" stroke="grey" width="400" x="-200.0" y="870" /><text fill="red" text-anchor="middle" x="0.0" y="890">G-Data - True - malware site</text><line stroke="rgb(10%,10%,16%)" x1="0" x2="0" y1="900" y2="980" /><rect fill="white" height="30" stroke="grey" width="400" x="-200.0" y="980" /><text fill="red" text-anchor="middle" x="0.0" y="1000">Malwarebytes hpHosts - True - malware site</text><line stroke="rgb(10%,10%,16%)" x1="0" x2="0" y1="1010" y2="1090" /><rect fill="white" height="30" stroke="grey" width="400" x="-200.0" y="1090" /><text fill="red" text-anchor="middle" x="0.0" y="1110">Dr.Web - True - malicious site</text><line stroke="rgb(10%,10%,16%)" x1="0" x2="0" y1="1120" y2="1200" /><rect fill="white" height="30" stroke="grey" width="400" x="-200.0" y="1200" /><text fill="red" text-anchor="middle" x="0.0" y="1220">Emsisoft - True - malware site</text><line stroke="rgb(10%,10%,16%)" x1="0" x2="0" y1="1230" y2="1310" /><rect fill="white" height="30" stroke="grey" width="400" x="-200.0" y="1310" /><text fill="red" text-anchor="middle" x="0.0" y="1330">ESET - True - phishing site</text><line stroke="rgb(10%,10%,16%)" x1="0" x2="0" y1="1340" y2="1420" /><rect fill="white" height="30" stroke="grey" width="400" x="-200.0" y="1420" /><text fill="red" text-anchor="middle" x="0.0" y="1440">Sophos - True - malicious site</text><line stroke="rgb(10%,10%,16%)" x1="0" x2="0" y1="1450" y2="1530" /><rect fill="white" height="30" stroke="grey" width="400" x="-200.0" y="1530" /><text fill="red" text-anchor="middle" x="0.0" y="1550">Fortinet - True - malware site</text></svg>