<?xml version="1.0" encoding="utf-8" ?>
<svg baseProfile="tiny" height="100%" version="1.2" width="100%" xmlns="http://www.w3.org/2000/svg" xmlns:ev="http://www.w3.org/2001/xml-events" xmlns:xlink="http://www.w3.org/1999/xlink"><defs /><circle cx="0" cy="0" fill="white" r="250" stroke="blue" /><text fill="red" font-size="10" text-anchor="middle" x="0" y="0">https://s3.amazonaws.com/aws-website-dpiproject-bwm6w/index.html</text><line stroke="rgb(10%,10%,16%)" x1="250" x2="650" y1="0" y2="0" /><circle cx="900" cy="0" fill="white" r="250" stroke="blue" /><text fill="red" font-size="10" text-anchor="middle" x="900" y="0">https://s3.ca-central-1.amazonaws.com/reneee/index.html</text><line stroke="rgb(10%,10%,16%)" x1="1150" x2="1550" y1="0" y2="0" /><circle cx="1800" cy="0" fill="white" r="250" stroke="blue" /><text fill="red" font-size="10" text-anchor="middle" x="1800" y="0">https://s3.ca-central-1.amazonaws.com/srpproejct/index.html</text><line stroke="rgb(10%,10%,16%)" x1="2050" x2="2450" y1="0" y2="0" /><circle cx="2700" cy="0" fill="white" r="250" stroke="blue" /><text fill="red" font-size="10" text-anchor="middle" x="2700" y="0">https://s3.ca-central-1.amazonaws.com/yongkkk/index.html</text><line stroke="rgb(10%,10%,16%)" x1="2950" x2="3350" y1="0" y2="0" /><circle cx="3600" cy="0" fill="white" r="250" stroke="blue" /><text fill="red" font-size="10" text-anchor="middle" x="3600" y="0">http://eagleepicsocks.com/2d/</text><line stroke="rgb(10%,10%,16%)" x1="3600" x2="3600" y1="3850" y2="4250" /><rect fill="white" height="30" stroke="grey" width="400" x="3400.0" y="4250" /><text fill="red" text-anchor="middle" x="3600.0" y="4270">CLEAN MX - True - phishing site</text><line stroke="rgb(10%,10%,16%)" x1="3600" x2="3600" y1="4280" y2="4360" /><rect fill="white" height="30" stroke="grey" width="400" x="3400.0" y="4360" /><text fill="red" text-anchor="middle" x="3600.0" y="4380">BitDefender - True - malware site</text><line stroke="rgb(10%,10%,16%)" x1="3600" x2="3600" y1="4390" y2="4470" /><rect fill="white" height="30" stroke="grey" width="400" x="3400.0" y="4470" /><text fill="red" text-anchor="middle" x="3600.0" y="4490">G-Data - True - malware site</text><line stroke="rgb(10%,10%,16%)" x1="3600" x2="3600" y1="4500" y2="4580" /><rect fill="white" height="30" stroke="grey" width="400" x="3400.0" y="4580" /><text fill="red" text-anchor="middle" x="3600.0" y="4600">Malwarebytes hpHosts - True - malware site</text><line stroke="rgb(10%,10%,16%)" x1="3600" x2="3600" y1="4610" y2="4690" /><rect fill="white" height="30" stroke="grey" width="400" x="3400.0" y="4690" /><text fill="red" text-anchor="middle" x="3600.0" y="4710">Dr.Web - True - malicious site</text><line stroke="rgb(10%,10%,16%)" x1="3600" x2="3600" y1="4720" y2="4800" /><rect fill="white" height="30" stroke="grey" width="400" x="3400.0" y="4800" /><text fill="red" text-anchor="middle" x="3600.0" y="4820">Emsisoft - True - malware site</text><line stroke="rgb(10%,10%,16%)" x1="3600" x2="3600" y1="4830" y2="4910" /><rect fill="white" height="30" stroke="grey" width="400" x="3400.0" y="4910" /><text fill="red" text-anchor="middle" x="3600.0" y="4930">ESET - True - phishing site</text><line stroke="rgb(10%,10%,16%)" x1="3600" x2="3600" y1="4940" y2="5020" /><rect fill="white" height="30" stroke="grey" width="400" x="3400.0" y="5020" /><text fill="red" text-anchor="middle" x="3600.0" y="5040">Sophos - True - malicious site</text><line stroke="rgb(10%,10%,16%)" x1="3600" x2="3600" y1="5050" y2="5130" /><rect fill="white" height="30" stroke="grey" width="400" x="3400.0" y="5130" /><text fill="red" text-anchor="middle" x="3600.0" y="5150">Fortinet - True - malware site</text></svg>